<?xml version="1.0" encoding="UTF-8"?>
<svg id="Capa_2" data-name="Capa 2" xmlns="http://www.w3.org/2000/svg" viewBox="0 0 379.08 379.09">
  <defs>
    <style>
      .cls-1 {
        fill: #838b71;
        stroke-width: 0px;
      }
    </style>
  </defs>
  <g id="bunga">
    <g>
      <path class="cls-1" d="M189.54,379.05c-41.17,0-82.33.12-123.5-.04-29.7-.12-55.17-19.6-63.39-48-1.71-5.9-2.62-11.94-2.62-18.07-.02-82.21-.07-164.42.01-246.63C.07,33.76,23.41,6.33,55.43.94c3.55-.6,7.19-.89,10.79-.89C148.43,0,230.64-.02,312.85.03c33.82.02,61.91,25.29,65.61,58.82.29,2.6.58,5.21.58,7.82.03,81.96.07,163.92,0,245.88-.03,31.18-21.02,57.55-51.18,64.66-5.72,1.35-11.54,1.88-17.43,1.87-40.29-.03-80.59-.02-120.88-.02h0ZM19.77,189.41c0,41.03-.04,82.07.01,123.1.04,26.33,20.05,46.71,46.26,46.74,82.32.11,164.64.1,246.95,0,26.07-.03,46.26-20.34,46.28-46.34.06-82.32.07-164.64,0-246.95-.02-25.93-20.48-46.18-46.44-46.19-82.19-.03-164.39-.01-246.58,0-2.48,0-5.01.04-7.44.49-23.65,4.36-39.02,22.78-39.04,46.78-.03,40.78,0,81.57,0,122.35Z"/>
      <path class="cls-1" d="M189.16,293.8c-28.69,0-57.38,0-86.08,0-15.11,0-24.47-9.38-24.47-24.56-.02-46.78-.02-93.56,0-140.34,0-15.15,9.61-24.69,24.84-24.77,4.62-.02,9.23-.11,13.85.03,2.79.09,4.05-.75,4.04-3.8-.02-5.96.13-5.96,5.95-5.97,3.24,0,6.49.09,9.73-.02,2.79-.1,4.17.86,4.04,3.87-.26,6.14-.15,5.89,5.94,5.89,9.48,0,18.96-.11,28.44.06,3.3.06,4.37-1.07,4.29-4.33-.14-5.43.03-5.44,5.33-5.46,3.62-.01,7.24.07,10.85,0,2.56-.05,3.63,1.08,3.52,3.61-.29,6.7.03,6.11,6.47,6.12,9.23.02,18.47-.11,27.69.06,3.38.06,4.66-.96,4.54-4.46-.19-5.3.01-5.31,5.45-5.33,3.37,0,6.74.12,10.1-.03,3.04-.14,4.21,1.03,4.18,4.14-.05,5.61.1,5.53,5.8,5.65,5.85.11,11.73-.54,17.55.47,11.5,2,19.16,10.97,19.23,22.79.1,17.09.03,34.18.03,51.27,0,29.94,0,59.88,0,89.82,0,16.22-9.08,25.31-25.23,25.31-28.69,0-57.38,0-86.08,0ZM189.72,170.36c-28.93,0-57.86.06-86.79-.07-3.64-.02-4.65,1.11-4.63,4.68.12,31.05.07,62.1.07,93.15,0,5.65.33,5.98,5.89,5.98,56.86,0,113.73,0,170.59,0,5.54,0,5.87-.34,5.87-6.01,0-30.93,0-61.85,0-92.78,0-4.94-.02-4.95-4.96-4.95-28.68,0-57.36,0-86.04,0ZM189.32,151.1c8.23,0,16.46,0,24.69,0,20.83,0,41.66-.04,62.48.04,2.86.01,4.39-.53,4.28-3.87-.21-6.35-.12-12.72-.04-19.08.04-3.25-1.51-4.44-4.61-4.36-4.11.1-8.23.01-12.35.02-6.08.02-6.17-.5-5.95,5.82.1,2.89-1.03,4.08-3.94,3.94-3.24-.15-6.48-.03-9.73-.03-5.97,0-6.14,0-6.04-5.83.06-3.25-1.29-3.99-4.23-3.95-9.48.13-18.96.04-28.43.05-6.17,0-6.2-.48-6.01,5.76.09,2.83-.91,4.14-3.89,4-3.48-.16-6.98-.03-10.47-.03-5.34-.01-5.55-.03-5.34-5.4.13-3.55-1.21-4.46-4.55-4.4-9.47.18-18.96.06-28.43.06-5.54,0-5.69,0-5.67,5.7.01,3.13-1.21,4.23-4.23,4.06-3.11-.17-6.23-.03-9.35-.03-6.03,0-6.15,0-6.17-6.09,0-2.76-.97-3.76-3.72-3.68-4.98.15-9.98.1-14.96.03-3-.04-4.32,1.31-4.29,4.29.06,5.99,0,11.97,0,17.96,0,4.99.02,5,4.9,5.01,28.68,0,57.37,0,86.05,0Z"/>
      <path class="cls-1" d="M170.48,212.59c10.12-.02,10.17-.02,10.11,10.05-.07,11.27,1.33,9.52-9.75,9.68-2.49.04-4.98-.04-7.48,0-2.17.03-3.2-.93-3.18-3.15.05-4.48.04-8.97,0-13.46-.02-2.22,1.02-3.17,3.19-3.13,2.37.04,4.73.01,7.1.01Z"/>
      <path class="cls-1" d="M208.41,232.32c-11.35-.18-9.9,1.63-9.9-9.89,0-11.54-1.42-9.75,9.92-9.85,10.47-.09,10.54-.02,10.46,10.05-.09,11.12,1.54,9.54-9.73,9.68-.25,0-.5,0-.75,0Z"/>
      <path class="cls-1" d="M170.51,184.84c10.1-.02,10.14-.02,10.08,10.02-.06,10.96,1.25,9.57-9.82,9.67-2.49.02-4.98-.03-7.46-.02-2.17.01-3.15-1.01-3.12-3.2.06-4.48.05-8.96.01-13.43-.02-2.24,1.08-3.11,3.23-3.06,2.36.06,4.73.01,7.09.01Z"/>
      <path class="cls-1" d="M208.69,184.84c2.36,0,4.73.05,7.09-.01,2.24-.06,3.13,1.02,3.11,3.18-.04,4.48-.05,8.96,0,13.43.03,2.27-1.15,3.09-3.24,3.08-4.6-.02-9.2-.03-13.81,0-2.36.02-3.38-1.13-3.36-3.43.03-4.23.07-8.46-.03-12.69-.06-2.79,1.24-3.76,3.88-3.6,2.11.13,4.23.03,6.34.03h0Z"/>
      <path class="cls-1" d="M170.31,260.08c-10.13,0-10.2,0-10.11-9.99.1-11.16-1.67-9.72,10.02-9.71,11.8,0,10.34-1.57,10.36,10.22.01,11.1,1.21,9.3-9.52,9.48-.25,0-.5,0-.75,0Z"/>
      <path class="cls-1" d="M208.39,260.08c-11.26-.2-9.87,1.74-9.88-9.87-.01-11.27-1.29-9.78,10-9.85,10.4-.07,10.45-.01,10.39,10.49-.07,10.68,1.33,9.08-9.38,9.23-.37,0-.75,0-1.12,0Z"/>
      <path class="cls-1" d="M141.88,195.02q.02,9.52-9.49,9.52-10.46,0-10.46-10.45,0-9.26,9.34-9.26c2.49,0,4.99.06,7.48,0,2.18-.05,3.23.83,3.15,3.09-.08,2.37-.02,4.74-.02,7.1Z"/>
      <path class="cls-1" d="M247.06,184.82q10.09,0,10.09,10.01,0,9.7-9.71,9.7-10.25,0-10.25-9.89t9.88-9.83Z"/>
      <path class="cls-1" d="M141.89,222.45q0,9.88-9.88,9.88-10.08,0-10.08-10.07,0-9.68,9.72-9.68h.37q9.87,0,9.87,9.88Z"/>
      <path class="cls-1" d="M237.19,222.38q0-9.81,9.94-9.81t10.03,10.12q0,9.64-9.77,9.64h-.37q-9.82,0-9.82-9.94Z"/>
      <path class="cls-1" d="M131.83,260.08q-9.89,0-9.89-9.85t9.9-9.89q10.06,0,10.06,10.08,0,9.65-9.69,9.65h-.37Z"/>
      <path class="cls-1" d="M247.04,260.08q-9.85,0-9.85-9.87t9.9-9.87q10.06,0,10.06,10.1,0,9.63-9.74,9.63h-.37Z"/>
    </g>
  </g>
</svg>