<?xml version="1.0" encoding="UTF-8"?>
<svg id="Capa_2" data-name="Capa 2" xmlns="http://www.w3.org/2000/svg" viewBox="0 0 372.09 371.95">
  <defs>
    <style>
      .cls-1 {
        fill: #fff;
        stroke-width: 0px;
      }
    </style>
  </defs>
  <g id="bunga">
    <g>
      <path class="cls-1" d="M185.97,371.95C83.9,372.56-.13,288.24,0,185.77.13,83.62,84.14-.23,186.51,0c101.99.23,185.92,84.12,185.58,186.69-.34,101.81-83.93,185.94-186.12,185.26ZM186.19,348.95c90.91-.96,162.77-72.76,162.57-163.14-.2-90.54-72.17-162.49-162.67-162.49-90.13,0-162.81,71.61-162.76,162.77.05,90.73,72.27,162.11,162.86,162.85Z"/>
      <path class="cls-1" d="M188.31,108.65c2.93-10.26,8.3-16.22,18.67-16.65,2.9-.12,5.83-1.32,8.61-2.37,5.2-1.95,6.1-3.43,6.12-8.92,0-.62,0-1.25,0-1.87,0-7.08,1.03-7.94,7.94-6.82,1.29.21,2.23.59,1.96,2.07-1.39,7.73,1.53,14.45,4.82,21.1,1.11,2.23,1.97,4.6,3.2,6.76,1.39,2.43.97,3.93-1.38,5.54-5.58,3.79-10.58,8.28-15.12,13.32-7.64,8.5-9.2,18.23-6.24,28.93,3.02,10.94,9.54,19.97,16.2,28.87,11.66,15.57,23.75,30.83,33.62,47.67,7.78,13.29,14.11,27.22,19.03,41.8,2.18,6.47,1.48,8.43-4.33,12.25-11.07,7.28-23.32,11.82-36.03,15.2-26.21,6.97-52.89,7.92-79.78,6.1-19.91-1.35-39.26-5.2-57.74-12.92-5.42-2.26-10.52-5.11-15.55-8.15-3.56-2.15-4.14-4.53-2.91-8.38,7.64-24,19.09-46.03,33.83-66.38,8.05-11.11,16.4-21.99,24.49-33.08,5.01-6.87,9.34-14.15,11.81-22.39,4.03-13.44.14-24.54-10.04-33.71-3.42-3.08-6.93-6.13-10.68-8.78-2.65-1.87-3.1-3.43-1.68-6.42,3.09-6.5,6.97-12.71,7.9-20.09.25-2,.59-4,.1-5.94-.74-2.91.64-3.38,3.11-3.43,6.63-.12,6.63-.19,6.63,6.32,0,8.69,1.1,10.16,9.47,12.53,1.92.54,3.87,1.23,5.82,1.3,9.5.37,14.69,5.82,17.43,14.33.14.44.29.89.72,2.2ZM195.33,162.75c-.07-4.93-4.61-9.34-9.47-9.2-4.79.14-9.03,4.42-9.1,9.2-.07,4.89,4.38,9.38,9.29,9.38,4.91,0,9.36-4.49,9.29-9.38Z"/>
      <path class="cls-1" d="M179.08,162.87c-.01-4.13,2.9-7.02,7.03-6.99,4.12.03,6.97,2.98,6.9,7.13-.07,3.96-2.88,6.75-6.85,6.81-4.14.06-7.07-2.82-7.08-6.94Z"/>
    </g>
  </g>
</svg>