<?xml version="1.0" encoding="UTF-8"?>
<svg id="Capa_2" data-name="Capa 2" xmlns="http://www.w3.org/2000/svg" viewBox="0 0 383.66 383.56">
  <defs>
    <style>
      .cls-1 {
        fill: #838b71;
        stroke-width: 0px;
      }
    </style>
  </defs>
  <g id="bunga">
    <g>
      <path class="cls-1" d="M87.99,0c69.36,0,138.73,0,208.09,0,.6.15,1.2.35,1.81.44,31.7,4.69,55.83,20.82,72.51,48.12,7.33,12,11.21,25.2,13.26,39.01v208.09c-.39,2.08-.81,4.15-1.16,6.23-7.88,46.44-49.14,81.54-96.2,81.61-62.85.09-125.7.02-188.55.02-3.61,0-7.2-.2-10.81-.65C37.51,376.75.19,334.87.14,285.16c-.07-62.35-.32-124.71.1-187.06C.48,61.11,17.5,33.04,48.66,13.47,60.67,5.92,74.04,2.05,87.99,0ZM275.77,162.37c-.13-3.49-.26-6.96-.72-10.44-5.55-41.88-43.89-75.57-89.4-71.75-28.33,2.38-50.04,15.86-65.08,39.73-10.38,16.48-14.55,34.66-11.25,54.05,2.08,12.24,6.97,23.64,12.13,34.87,13.15,28.64,29.48,55.47,46.82,81.69,11.4,17.23,35.62,17.21,47.39.26,2.2-3.17,4.24-6.46,6.31-9.72,16.38-25.81,32.2-51.93,44.07-80.2,5.17-12.31,9.91-24.8,9.71-38.49Z"/>
      <path class="cls-1" d="M191.92,200.18c-20.3-.03-36.75-16.47-36.67-36.62.08-20.1,16.72-36.59,36.91-36.55,20.13.04,36.8,16.76,36.66,36.78-.13,20.25-16.53,36.42-36.9,36.39Z"/>
    </g>
  </g>
</svg>