<?xml version="1.0" encoding="UTF-8"?>
<svg id="Capa_2" data-name="Capa 2" xmlns="http://www.w3.org/2000/svg" viewBox="0 0 311 334.74">
  <defs>
    <style>
      .cls-1 {
        fill: #838b71;
        stroke-width: 0px;
      }
    </style>
  </defs>
  <g id="bunga">
    <path class="cls-1" d="M155.55,334.62c-30.93,0-61.87,0-92.8,0-23.23,0-38.76-15.48-38.77-38.69-.02-44.9-.06-89.81.08-134.71.01-3.78-.9-5.36-4.8-6.17C7.72,152.63.35,143.15.17,130.57c-.22-15.21-.23-30.44,0-45.65.23-15.23,10.78-25.31,26.06-25.35,7.61-.02,15.22.03,22.83-.02,4.97-.03,5.86,1.03,3.16-4.68-8.5-17.96-3.61-37.28,12.15-48.54,9.56-6.84,20.18-7.66,31.08-4.73,20.78,5.57,38.94,15.83,53.84,31.54,3.48,3.67,9.25,3.51,12.71-.05C178.24,16.35,197.68,5.07,220.63.7c13.87-2.64,25.62,2.2,34.36,13.44,9.35,12.04,10.48,25.24,4.8,39.15-2.58,6.31-2.68,6.27,4.27,6.27,7.36,0,14.72-.06,22.08.02,14.25.15,24.75,10.71,24.82,24.97.07,15.34.05,30.68,0,46.03-.04,12.82-7.53,22.22-20.06,24.72-3.17.63-3.91,1.88-3.9,4.9.09,45.28-.31,90.56.22,135.83.25,21.88-16.45,39.04-38.87,38.7-30.93-.47-61.86-.12-92.8-.12ZM132.12,185.12c0,40.04.04,80.08-.06,120.12,0,3.38.92,4.61,4.42,4.57,12.72-.16,25.45-.15,38.17,0,3.25.03,4.33-1.04,4.33-4.31-.07-80.2-.07-160.41,0-240.61,0-3.25-.97-4.36-4.27-4.32-12.47.15-24.95.06-37.42.06q-5.14,0-5.15,5.13c0,39.79,0,79.58,0,119.37ZM107.66,232.6c0-24.19-.05-48.38.06-72.57.02-3.2-.81-4.35-4.18-4.32-16.71.15-33.42.17-50.13,0-3.73-.04-4.57,1.28-4.56,4.76.1,45.39.06,90.78.07,136.17,0,9.03,3.97,13.07,12.94,13.1,13.59.05,27.18.02,40.78.01,5.01,0,5.02-.02,5.03-4.94,0-24.07,0-48.13,0-72.2ZM262.6,228.65c0-22.82-.06-45.64.07-68.47.02-3.39-.89-4.53-4.4-4.49-16.58.17-33.17.16-49.76,0-3.5-.03-4.75.89-4.74,4.58.11,48.26.1,96.53,0,144.79,0,3.56,1.07,4.78,4.69,4.74,13.34-.17,26.69-.05,40.03-.07,9.94-.02,14.1-4.17,14.1-14.11.01-22.32,0-44.65,0-66.97ZM66.03,131.29c12.47,0,24.94-.1,37.41.06,3.24.04,4.34-.88,4.29-4.22-.17-12.72-.17-25.44,0-38.16.04-3.36-.87-4.59-4.39-4.57-24.69.12-49.38.11-74.07.01-3.24-.01-4.35.99-4.31,4.29.15,12.84.14,25.69,0,38.53-.03,3.05.89,4.15,4.04,4.11,12.34-.15,24.69-.06,37.04-.06ZM244.79,131.29c12.47,0,24.94-.07,37.42.05,2.92.03,3.96-.98,3.94-3.9-.1-12.97-.11-25.94,0-38.91.03-3.12-1.17-4.11-4.2-4.1-24.69.08-49.39.08-74.08,0-3.13-.01-4.1,1.13-4.07,4.17.12,12.85.14,25.69-.02,38.54-.04,3.34,1.12,4.26,4.34,4.22,12.22-.15,24.44-.06,36.67-.06ZM212.64,59.57c11.81,0,20.87-6.1,24.74-16.62,1.89-5.14,1.84-10.02-1.94-14.35-3.54-4.06-8.1-4.35-13.01-3.41-10.23,1.97-19.12,6.88-27.74,12.44-2,1.29-1.78,2.22-.06,3.59,3.69,2.93,6.27,6.69,7.8,11.17,2.46,7.19,2.48,7.18,10.22,7.18ZM98.28,59.57c1.87,0,3.74-.12,5.6.03,2.59.21,3.71-.67,4.06-3.43.56-4.51,2.72-8.42,5.51-12.06,1.44-1.87,5.29-2.62,4.31-5.2-.72-1.9-3.78-3-5.92-4.25-7.55-4.41-15.35-8.23-24.1-9.67-9.23-1.52-15.6,4.35-14.84,13.68.94,11.39,12.48,20.9,25.37,20.91Z"/>
  </g>
</svg>